HIERARCHY
ROOT Hips
{
	OFFSET 0.00000 0.00000 0.00000
	CHANNELS 6 Xposition Yposition Zposition Zrotation Yrotation Xrotation 
	JOINT LHipJoint
	{
		OFFSET 0 0 0
		CHANNELS 3 Zrotation Yrotation Xrotation
		JOINT LeftUpLeg
		{
			OFFSET 1.57338 -1.94743 0.52196
			CHANNELS 3 Zrotation Yrotation Xrotation
			JOINT LeftLeg
			{
				OFFSET 2.60333 -7.15259 0.00000
				CHANNELS 3 Zrotation Yrotation Xrotation
				JOINT LeftFoot
				{
					OFFSET 2.77855 -7.63400 0.00000
					CHANNELS 3 Zrotation Yrotation Xrotation
					JOINT LeftToeBase
					{
						OFFSET 0.19847 -0.54529 2.28466
						CHANNELS 3 Zrotation Yrotation Xrotation
						End Site
						{
							OFFSET 0.00000 -0.00000 1.17993
						}
					}
				}
			}
		}
	}
	JOINT RHipJoint
	{
		OFFSET 0 0 0
		CHANNELS 3 Zrotation Yrotation Xrotation
		JOINT RightUpLeg
		{
			OFFSET -1.61527 -1.94743 0.52196
			CHANNELS 3 Zrotation Yrotation Xrotation
			JOINT RightLeg
			{
				OFFSET -2.53829 -6.97390 0.00000
				CHANNELS 3 Zrotation Yrotation Xrotation
				JOINT RightFoot
				{
					OFFSET -2.80762 -7.71387 0.00000
					CHANNELS 3 Zrotation Yrotation Xrotation
					JOINT RightToeBase
					{
						OFFSET -0.30536 -0.83898 2.28801
						CHANNELS 3 Zrotation Yrotation Xrotation
						End Site
						{
							OFFSET -0.00000 -0.00000 1.21323
						}
					}
				}
			}
		}
	}
	JOINT LowerBack
	{
		OFFSET 0 0 0
		CHANNELS 3 Zrotation Yrotation Xrotation
		JOINT Spine
		{
			OFFSET -0.04381 1.99497 -0.19778
			CHANNELS 3 Zrotation Yrotation Xrotation
			JOINT Spine1
			{
				OFFSET -0.01959 2.01295 -0.04372
				CHANNELS 3 Zrotation Yrotation Xrotation
				JOINT Neck
				{
					OFFSET 0 0 0
					CHANNELS 3 Zrotation Yrotation Xrotation
					JOINT Neck1
					{
						OFFSET -0.05459 1.76913 0.09708
						CHANNELS 3 Zrotation Yrotation Xrotation
						JOINT Head
						{
							OFFSET 0.09461 1.77368 -0.11172
							CHANNELS 3 Zrotation Yrotation Xrotation
							End Site
							{
								OFFSET 0.03812 1.78157 -0.04834
							}
						}
					}
				}
				JOINT LeftShoulder
				{
					OFFSET 0 0 0
					CHANNELS 3 Zrotation Yrotation Xrotation
					JOINT LeftArm
					{
						OFFSET 3.50922 1.24034 -0.28866
						CHANNELS 3 Zrotation Yrotation Xrotation
						JOINT LeftForeArm
						{
							OFFSET 5.40188 -0.00000 0.00000
							CHANNELS 3 Zrotation Yrotation Xrotation
							JOINT LeftHand
							{
								OFFSET 3.68559 -0.00000 0.00000
								CHANNELS 3 Zrotation Yrotation Xrotation
								JOINT LeftFingerBase
								{
									OFFSET 0 0 0
									CHANNELS 3 Zrotation Yrotation Xrotation
									JOINT LeftHandIndex1
									{
										OFFSET 0.61753 -0.00000 0.00000
										CHANNELS 3 Zrotation Yrotation Xrotation
										End Site
										{
											OFFSET 0.49787 -0.00000 0.00000
										}
									}
								}
								JOINT LThumb
								{
									OFFSET 0 0 0
									CHANNELS 3 Zrotation Yrotation Xrotation
									End Site
									{
										OFFSET 0.50547 -0.00000 0.50547
									}
								}
							}
						}
					}
				}
				JOINT RightShoulder
				{
					OFFSET 0 0 0
					CHANNELS 3 Zrotation Yrotation Xrotation
					JOINT RightArm
					{
						OFFSET -2.95373 1.39649 -0.27346
						CHANNELS 3 Zrotation Yrotation Xrotation
						JOINT RightForeArm
						{
							OFFSET -6.10670 -0.00000 -0.00000
							CHANNELS 3 Zrotation Yrotation Xrotation
							JOINT RightHand
							{
								OFFSET -3.63052 -0.00000 0.00000
								CHANNELS 3 Zrotation Yrotation Xrotation
								JOINT RightFingerBase
								{
									OFFSET 0 0 0
									CHANNELS 3 Zrotation Yrotation Xrotation
									JOINT RightHandIndex1
									{
										OFFSET -0.58385 -0.00000 0.00000
										CHANNELS 3 Zrotation Yrotation Xrotation
										End Site
										{
											OFFSET -0.47071 -0.00000 0.00000
										}
									}
								}
								JOINT RThumb
								{
									OFFSET 0 0 0
									CHANNELS 3 Zrotation Yrotation Xrotation
									End Site
									{
										OFFSET -0.47790 -0.00000 0.47790
									}
								}
							}
						}
					}
				}
			}
		}
	}
}
MOTION
Frames: 7
Frame Time: .0083333
-12.1884 18.8421 2.0971 0 0 0 0 0 0 -21 0 0 0 0 0 0 0 0 0 0 0 0 0 0 21 0 0 0 0 0 0 0 0 0 0 0 0 0 0 0 0 0 0 0 0 0 0 -16 0 0 21 0 0 11 0 0 0 -8 0 0 0 0 0 0 0 0 0 0 0 0 0 0 0 0 0 0 0 0 8 0 0 0 0 0 0 0 0 0 0 0 0 0 0 0 0 0
-12.1884 18.8421 2.0971 -2.7327 12.6956 2.2818 0.0000 0.0000 0.0000 -12.9855 -8.8532 -17.2058 0.7433 5.5075 15.3618 1.1681 27.0157 -43.2238 2.4340 9.7169 28.0647 0.0000 0.0000 0.0000 24.0478 4.8310 12.0551 -0.8267 -5.8011 16.2083 0.5849 -17.8965 -19.2985 -1.2936 7.2064 -20.3283 -0.5742 3.7726 3.4432 -3.5529 4.9917 1.3136 -3.5029 2.5103 -0.3061 -7.1906 6.8159 -8.9068 0.7128 11.0367 26.1088 2.5674 4.5871 9.2639 0.0000 -0.0000 0.0000 -85.8617 4.8001 -13.9129 10.8946 -18.1265 -1.7430 -0.0000 -0.0000 8.0901 25.3072 26.1681 11.7791 -7.1250 0.0000 -0.0000 -5.2268 58.4290 -1.7197 0.0000 -0.0000 0.0000 87.0586 0.9020 21.1854 -10.8805 18.1049 -1.7386 0.0000 0.0000 23.9474 -31.7908 -3.0236 1.8725 7.1250 -0.0000 -0.0000 -4.2382 -33.5140 -1.1963
-12.1031 18.8552 2.1752 -2.8689 13.1807 2.2112 0.0000 0.0000 0.0000 -13.1490 -8.9172 -17.1101 0.7812 5.6429 15.7517 1.1786 26.5917 -42.7992 2.4584 9.7619 28.2090 0.0000 0.0000 0.0000 23.9541 4.4957 12.0962 -0.8551 -5.8972 16.4865 0.6197 -17.8316 -18.7066 -1.2873 7.1893 -20.2775 -0.5482 3.8083 3.4321 -3.5866 5.0391 1.2699 -3.5546 2.5340 -0.3368 -7.0804 6.7899 -9.0932 0.7828 11.0036 26.3449 2.5898 4.5776 9.3845 0.0000 -0.0000 0.0000 -85.6891 4.6595 -13.1322 11.1513 -18.5197 -1.8237 -0.0000 -0.0000 7.5373 25.2683 26.2145 11.7778 -7.1250 0.0000 -0.0000 -5.2898 58.4688 -1.7456 0.0000 -0.0000 0.0000 87.1573 0.7342 21.2822 -10.9547 18.2189 -1.7617 0.0000 0.0000 24.1177 -31.4967 -3.7279 2.2813 7.1250 -0.0000 -0.0000 -4.0155 -34.3282 -1.0538
-12.0128 18.8688 2.2566 -3.0750 13.6423 2.1050 0.0000 0.0000 0.0000 -13.3042 -8.8037 -16.9593 0.8059 5.7292 16.0008 1.0116 26.4865 -41.9643 2.3982 9.6505 27.8522 0.0000 0.0000 0.0000 23.9050 4.1772 12.0960 -0.8965 -6.0346 16.8849 0.6644 -17.7944 -18.0043 -1.3545 7.3673 -20.8083 -0.4320 3.8521 3.3203 -3.5807 5.1055 1.2894 -3.6052 2.5687 -0.2409 -7.1277 6.7415 -9.2942 0.8595 10.9598 26.4911 2.6353 4.5531 9.4681 -0.0000 0.0000 0.0000 -85.5456 4.4612 -12.3416 11.4057 -18.9074 -1.9053 -0.0000 -0.0000 6.9123 25.2802 26.2545 11.8002 -7.1250 0.0000 -0.0000 -5.2937 58.5134 -1.7525 -0.0000 0.0000 0.0000 87.1974 0.6061 21.4450 -11.0046 18.2953 -1.7774 0.0000 0.0000 23.9870 -31.3031 -3.6451 2.2139 7.1250 -0.0000 -0.0000 -3.8539 -34.2244 -1.0209
-11.9218 18.8777 2.3349 -3.1483 14.1200 2.0286 0.0000 0.0000 0.0000 -13.4401 -9.4176 -16.5908 0.8367 5.8352 16.3070 1.3170 25.7312 -42.4520 2.5273 9.8874 28.6127 0.0000 0.0000 0.0000 23.7137 3.8980 12.1014 -0.9412 -6.1791 17.3048 0.7034 -17.7538 -17.3334 -1.4373 7.5797 -21.4446 -0.4773 3.8902 3.2652 -3.5864 5.1553 1.2533 -3.5848 2.5932 -0.2479 -7.1453 6.6977 -9.3087 0.8733 10.9124 26.5754 2.6429 4.5288 9.5013 0.0000 0.0000 0.0000 -85.4117 4.2923 -11.6461 11.5856 -19.1802 -1.9640 -0.0000 -0.0000 6.4451 25.3665 26.4389 11.9200 -7.1250 0.0000 -0.0000 -5.2763 58.7264 -1.7737 0.0000 0.0000 0.0000 87.2251 0.3703 21.6147 -11.0594 18.3792 -1.7946 0.0000 0.0000 23.7274 -31.2021 -3.4295 2.0750 7.1250 -0.0000 -0.0000 -3.7661 -33.9694 -1.0209
-11.8364 18.8918 2.4120 -3.2770 14.6324 1.9436 0.0000 0.0000 0.0000 -13.7015 -9.2263 -16.5371 0.8688 5.9431 16.6194 1.0145 25.9555 -41.3771 2.3965 9.6472 27.8416 0.0000 0.0000 0.0000 23.6286 3.6810 12.0447 -0.9943 -6.3459 17.7915 0.7260 -17.7065 -16.8705 -1.4138 7.5201 -21.2656 -0.5555 3.9084 3.2812 -3.5577 5.1738 1.1670 -3.5178 2.6006 -0.3540 -7.1718 6.6550 -9.3245 0.9090 10.8661 26.7009 2.6611 4.5050 9.5474 -0.0000 0.0000 0.0000 -85.3377 4.0282 -11.4616 11.7119 -19.3712 -2.0057 -0.0000 -0.0000 6.4635 25.0801 26.5005 11.7955 -7.1250 0.0000 -0.0000 -5.6232 58.7242 -1.8905 -0.0000 0.0000 0.0000 87.2332 0.0948 21.7585 -11.1435 18.5078 -1.8212 0.0000 0.0000 23.5648 -31.2799 -3.2635 1.9808 7.1250 -0.0000 -0.0000 -3.8262 -33.7786 -1.0550
-11.7541 18.9002 2.4886 -3.5350 15.1403 1.8492 0.0000 0.0000 0.0000 -13.7474 -9.1667 -16.4958 0.9026 6.0546 16.9428 0.9088 25.7676 -40.6871 2.3661 9.5902 27.6596 0.0000 0.0000 0.0000 23.6957 3.4737 11.8507 -1.0621 -6.5523 18.3955 0.7728 -17.7605 -16.2227 -1.4334 7.5699 -21.4151 -0.5313 3.9219 3.2201 -3.5047 5.1928 1.1167 -3.4747 2.6093 -0.3734 -7.1522 6.5961 -9.4259 0.9440 10.7961 26.8368 2.6744 4.4722 9.6169 -0.0000 0.0000 0.0000 -85.2608 3.7543 -11.2350 11.9090 -19.6680 -2.0716 -0.0000 -0.0000 6.2635 24.3894 26.1029 11.2817 -7.1250 0.0000 -0.0000 -6.2158 58.1506 -2.0050 -0.0000 0.0000 0.0000 87.2496 -0.0354 21.8246 -11.1721 18.5515 -1.8303 0.0000 0.0000 23.5422 -31.5447 -2.8948 1.7757 7.1250 -0.0000 -0.0000 -4.0332 -33.3559 -1.1536
